<?xml version="1.0" encoding="utf-8"?>
<!-- Generator: Adobe Illustrator 22.0.2, SVG Export Plug-In . SVG Version: 6.00 Build 0)  -->
<svg version="1.1" xmlns="http://www.w3.org/2000/svg" xmlns:xlink="http://www.w3.org/1999/xlink" x="0px" y="0px"
	 viewBox="0 0 128 128" style="enable-background:new 0 0 128 128;" xml:space="preserve">
<style type="text/css">
	.st0{fill:#1890FF;}
	.st1{fill:#FFFFFF;}
</style>
<g id="Layer_2">
	<rect class="st0" width="128" height="128"/>
</g>
<g id="Layer_1">
	<title>most_searchBF</title>
	<g>
		<path class="st1" d="M104.6,96.2L86.4,78c10.1-15.3,5.9-35.9-9.4-46s-35.9-5.9-46,9.4s-5.9,35.9,9.4,46c11.1,7.3,25.5,7.3,36.6,0
			l18.2,18.2c2.6,2.6,6.8,2.6,9.4,0S107.1,98.8,104.6,96.2z M58.7,83.4C45.6,83.4,35,72.8,35,59.7S45.7,36,58.7,36
			s23.7,10.6,23.7,23.7c0,6.3-2.5,12.3-6.9,16.7C71,80.9,65,83.4,58.7,83.4z"/>
	</g>
</g>
</svg>
