<?xml version="1.0" encoding="utf-8"?>
<!-- Generator: Adobe Illustrator 23.1.1, SVG Export Plug-In . SVG Version: 6.00 Build 0)  -->
<svg version="1.1" id="图层_1" xmlns="http://www.w3.org/2000/svg" xmlns:xlink="http://www.w3.org/1999/xlink" x="0px" y="0px"
	 viewBox="0 0 327 112" style="enable-background:new 0 0 327 112;" xml:space="preserve">
<style type="text/css">
	.st0{fill:#222744;}
	.st1{enable-background:new    ;}
	.st2{clip-path:url(#SVGID_2_);enable-background:new    ;}
	.st3{fill:#65734F;}
	.st4{clip-path:url(#SVGID_4_);enable-background:new    ;}
	.st5{fill:#7C8D61;}
	.st6{fill:#809264;}
	.st7{fill:#849667;}
	.st8{fill:#78895E;}
	.st9{fill:#616F4C;}
	.st10{fill:#A4BB80;}
	.st11{clip-path:url(#SVGID_6_);enable-background:new    ;}
	.st12{fill:#74855B;}
	.st13{fill:#718058;}
	.st14{fill:#6D7C55;}
	.st15{fill:#697752;}
	.st16{fill:#FFFFFF;}
	.st17{font-family:'Impact';}
	.st18{font-size:51.5918px;}
	.st19{fill:#2D63AF;}
</style>
	<g id="Layer_2">
	<rect y="0" class="st0" width="327" height="112"/>
</g>
	<g>
	<g>
		<g>
			<g>
				<g class="st1">
					<g class="st1">
						<defs>
							<path id="SVGID_1_" class="st1" d="M236.2,82.9l-9-7.4c1.3,1.1,2.9,2,4.7,2.5l9,7.4C239.1,84.8,237.5,84,236.2,82.9z"/>
						</defs>
						<clipPath id="SVGID_2_">
							<use xlink:href="#SVGID_1_"  style="overflow:visible;"/>
						</clipPath>
						<g class="st2">
							<path class="st3" d="M231.8,78l9,7.4c-1.8-0.6-3.3-1.4-4.7-2.5l-9-7.4C228.5,76.5,230.1,77.4,231.8,78"/>
						</g>
					</g>
					<g class="st1">
						<defs>
							<path id="SVGID_3_" class="st1" d="M291.3,29.3l9,7.4c4.4,3.6,6.3,9.8,4.3,15.7l-9-7.4C297.6,39,295.7,32.9,291.3,29.3z"/>
						</defs>
						<clipPath id="SVGID_4_">
							<use xlink:href="#SVGID_3_"  style="overflow:visible;"/>
						</clipPath>
						<g class="st4">
							<path class="st5" d="M291.3,29.3l9,7.4c0.3,0.3,0.6,0.5,0.9,0.8l-9-7.4C291.9,29.8,291.6,29.5,291.3,29.3"/>
							<path class="st6" d="M292.2,30.1l9,7.4c0.6,0.6,1.2,1.3,1.7,2l-9-7.4C293.4,31.4,292.8,30.7,292.2,30.1"/>
							<path class="st7" d="M293.9,32.1l9,7.4c1.3,1.9,2.2,4.2,2.4,6.6l-9-7.4C296.1,36.3,295.2,34,293.9,32.1"/>
							<path class="st6" d="M296.3,38.7l9,7.4c0.1,0.9,0.1,1.8,0,2.7l-9-7.4C296.4,40.5,296.4,39.6,296.3,38.7"/>
							<path class="st5" d="M296.3,41.4l9,7.4c-0.1,0.7-0.2,1.3-0.3,2l-9-7.4C296.2,42.8,296.3,42.1,296.3,41.4"/>
							<path class="st8" d="M296,43.4l9,7.4c-0.1,0.5-0.3,1-0.4,1.5l-9-7.4C295.8,44.4,295.9,43.9,296,43.4"/>
						</g>
					</g>
					<g>
						<polygon class="st9" points="265.5,88.6 274.5,96 240.9,85.4 231.8,78 						"/>
					</g>
					<g>
						<polygon class="st5" points="295.6,44.9 304.6,52.4 293,86.5 284,79 						"/>
					</g>
					<g>
						<path class="st10" d="M245.4,15.6c2.4-0.5,5-0.5,7.5,0.3l33.6,10.7c7.6,2.3,11.7,10.5,9.1,18.2L284,79c-1.8,5.2-6,8.8-11,9.9
							c-2.4,0.5-5,0.5-7.5-0.3L231.8,78c-7.6-2.4-11.6-10.6-9-18.3l11.6-34.1C236.2,20.4,240.5,16.7,245.4,15.6z"/>
					</g>
					<g class="st1">
						<defs>
							<path id="SVGID_5_" class="st1" d="M284,79l9,7.4c-1.8,5.2-6,8.8-11,9.9c-2.4,0.5-5,0.5-7.5-0.3l-9-7.4
								c2.5,0.8,5.1,0.9,7.5,0.3C278,87.8,282.2,84.2,284,79z"/>
						</defs>
						<clipPath id="SVGID_6_">
							<use xlink:href="#SVGID_5_"  style="overflow:visible;"/>
						</clipPath>
						<g class="st11">
							<path class="st8" d="M284,79l9,7.4c0,0.1-0.1,0.2-0.1,0.3l-9-7.4C283.9,79.2,284,79.1,284,79"/>
							<path class="st12" d="M283.9,79.3l9,7.4c-0.2,0.6-0.4,1.1-0.7,1.6l-9-7.4C283.5,80.4,283.7,79.8,283.9,79.3"/>
							<path class="st13" d="M283.2,80.9l9,7.4c-0.3,0.5-0.6,1-0.9,1.5l-9-7.4C282.7,82,283,81.4,283.2,80.9"/>
							<path class="st14" d="M282.3,82.4l9,7.4c-0.3,0.5-0.7,1-1.1,1.5l-9-7.4C281.6,83.5,282,83,282.3,82.4"/>
							<path class="st15" d="M281.2,84l9,7.4c-0.5,0.6-1,1.1-1.6,1.6l-9-7.4C280.2,85.1,280.7,84.6,281.2,84"/>
							<path class="st3" d="M279.6,85.6l9,7.4c-1.9,1.6-4.1,2.8-6.6,3.3c-2.4,0.5-5,0.5-7.5-0.3l-9-7.4c2.5,0.8,5.1,0.9,7.5,0.3
								C275.5,88.4,277.7,87.2,279.6,85.6"/>
						</g>
					</g>
				</g>
			</g>
		</g>
		<text transform="matrix(1.0242 0 0 1 24.1079 75.4552)" class="st16 st17 st18">Dispatch</text>
		<text transform="matrix(1.0242 0 0 1 216.6577 75.4552)" class="st17 st18">  </text>
		<text transform="matrix(1.0242 0 0 1 235.2671 75.4552)" class="st19 st17 st18">SF</text>
	</g>
</g>
	<path class="st16" d="M58.8,31.5c0,0,1.1,0.2-0.6,0c-1.7-0.2-4-0.3-4-0.3s-2.2,0-2.8,0c-0.6,0-2.7,0.2-3,0.4S47.8,32,47.8,32
	s0,0.7,0.6,0.8c0.5,0.2,2.4,0.7,3.3,0.7c0.9,0,4.4,0.4,5.2,0.3s1,0.1,1.9,0c0.8-0.1,0.9,1.6,0.9,1.6h2.2c0,0,0-1.3,0-1.3
	s0.7-0.2,1.1-0.1c0.5,0.1,2.6,0.1,2.6,0.1s3,0.1,3.6,0s3-0.2,4-0.5s1.4-0.9,1.4-0.9s-0.3-0.8-1.8-1c-1.5-0.2-3.4-0.2-3.4-0.2
	l-7.1,0.4c0,0-0.1-0.3-0.4-1.3c-0.4-1-1.4-0.1-1.7,0"/>
</svg>